<svg width="16" height="16" viewBox="0 0 16 16" version="2.0" xmlns="http://www.w3.org/2000/svg" xmlns:xlink="http://www.w3.org/1999/xlink" xmlns:figma="http://www.figma.com/figma/ns">
<title>OverviewIcon</title>
<desc>Created using Figma 0.90</desc>
<g id="Canvas" transform="translate(-890 810)" figma:type="canvas">
<mask id="mask0_outline" mask-type="alpha">
<path d="M 890 -810L 906 -810L 906 -794L 890 -794L 890 -810Z" fill="#FFFFFF"/>
</mask>
<g id="OverviewIcon" style="mix-blend-mode:normal;" mask="url(#mask0_outline)" figma:type="frame">
<g id="Group" style="mix-blend-mode:normal;" figma:type="group">
<g id="Rectangle" style="mix-blend-mode:normal;" figma:type="rounded-rectangle">
<mask id="mask1_outline_ins">
<use xlink:href="#path0_fill" fill="white" transform="translate(890 -810)"/>
</mask>
<g mask="url(#mask1_outline_ins)">
<use xlink:href="#path1_stroke_2x" transform="translate(890 -810)" fill="#FFFFFF" style="mix-blend-mode:normal;"/>
</g>
</g>
<g id="Rectangle" style="mix-blend-mode:normal;" figma:type="rounded-rectangle">
<mask id="mask2_outline_ins">
<use xlink:href="#path0_fill" fill="white" transform="translate(899 -810)"/>
</mask>
<g mask="url(#mask2_outline_ins)">
<use xlink:href="#path1_stroke_2x" transform="translate(899 -810)" fill="#FFFFFF" style="mix-blend-mode:normal;"/>
</g>
</g>
<g id="Rectangle" style="mix-blend-mode:normal;" figma:type="rounded-rectangle">
<mask id="mask3_outline_ins">
<use xlink:href="#path0_fill" fill="white" transform="translate(890 -801)"/>
</mask>
<g mask="url(#mask3_outline_ins)">
<use xlink:href="#path1_stroke_2x" transform="translate(890 -801)" fill="#FFFFFF" style="mix-blend-mode:normal;"/>
</g>
</g>
<g id="Rectangle" style="mix-blend-mode:normal;" figma:type="rounded-rectangle">
<mask id="mask4_outline_ins">
<use xlink:href="#path0_fill" fill="white" transform="translate(899 -801)"/>
</mask>
<g mask="url(#mask4_outline_ins)">
<use xlink:href="#path1_stroke_2x" transform="translate(899 -801)" fill="#FFFFFF" style="mix-blend-mode:normal;"/>
</g>
</g>
</g>
</g>
</g>
<defs>
<path id="path0_fill" d="M 0 1C 0 0.447715 0.447715 0 1 0L 6 0C 6.55228 0 7 0.447715 7 1L 7 6C 7 6.55228 6.55228 7 6 7L 1 7C 0.447715 7 0 6.55228 0 6L 0 1Z"/>
<path id="path1_stroke_2x" d="M 1 1L 6 1L 6 -1L 1 -1L 1 1ZM 6 1L 6 6L 8 6L 8 1L 6 1ZM 6 6L 1 6L 1 8L 6 8L 6 6ZM 1 6L 1 1L -1 1L -1 6L 1 6ZM 1 -1C -0.104569 -1 -1 -0.104569 -1 1L 1 1C 1 0.999724 0.998905 1.00109 1 1C 1.00109 0.998905 0.999724 1 1 1L 1 -1ZM 6 1C 6.00028 1 5.99891 0.998905 6 1C 6.00109 1.00109 6 0.999724 6 1L 8 1C 8 -0.104569 7.10457 -1 6 -1L 6 1ZM 6 6C 6 6.00028 6.00109 5.99891 6 6C 5.99891 6.00109 6.00028 6 6 6L 6 8C 7.10457 8 8 7.10457 8 6L 6 6ZM 1 6C 0.999724 6 1.00109 6.00109 1 6C 0.998905 5.99891 1 6.00028 1 6L -1 6C -1 7.10457 -0.104569 8 1 8L 1 6Z"/>
</defs>
</svg>
