<svg width="16" height="16" viewBox="0 0 16 16" version="2.0" xmlns="http://www.w3.org/2000/svg" xmlns:xlink="http://www.w3.org/1999/xlink" xmlns:figma="http://www.figma.com/figma/ns">
<title>SearchIcon</title>
<desc>Created using Figma 0.90</desc>
<g id="Canvas" transform="translate(706 909)" figma:type="canvas">
<mask id="mask0_outline" mask-type="alpha">
<path d="M -706 -909L -690 -909L -690 -893L -706 -893L -706 -909Z" fill="#FFFFFF"/>
</mask>
<g id="SearchIcon" style="mix-blend-mode:normal;" mask="url(#mask0_outline)" figma:type="frame">
<g id="Magnifying glass" style="mix-blend-mode:normal;" figma:type="group">
<g id="Ellipse" style="mix-blend-mode:normal;" figma:type="ellipse">
<mask id="mask1_outline_ins">
<use xlink:href="#path0_fill" fill="white" transform="translate(-702.5 -908)"/>
</mask>
<g mask="url(#mask1_outline_ins)">
<use xlink:href="#path1_stroke_2x" transform="translate(-702.5 -908)" fill="#FFFFFF" style="mix-blend-mode:normal;"/>
</g>
</g>
<g id="Line" style="mix-blend-mode:normal;" figma:type="line">
<use xlink:href="#path2_stroke" transform="matrix(-0.707107 0.707107 -0.707107 -0.707107 -700.5 -900)" fill="#FFFFFF" style="mix-blend-mode:normal;"/>
</g>
</g>
</g>
</g>
<defs>
<path id="path0_fill" d="M 11 5.5C 11 8.53757 8.53757 11 5.5 11C 2.46243 11 0 8.53757 0 5.5C 0 2.46243 2.46243 0 5.5 0C 8.53757 0 11 2.46243 11 5.5Z"/>
<path id="path1_stroke_2x" d="M 9 5.5C 9 7.433 7.433 9 5.5 9L 5.5 13C 9.64214 13 13 9.64214 13 5.5L 9 5.5ZM 5.5 9C 3.567 9 2 7.433 2 5.5L -2 5.5C -2 9.64214 1.35786 13 5.5 13L 5.5 9ZM 2 5.5C 2 3.567 3.567 2 5.5 2L 5.5 -2C 1.35786 -2 -2 1.35786 -2 5.5L 2 5.5ZM 5.5 2C 7.433 2 9 3.567 9 5.5L 13 5.5C 13 1.35786 9.64214 -2 5.5 -2L 5.5 2Z"/>
<path id="path2_stroke" d="M 1 -2L 0 -2L 0 0L 1 0L 1 -2ZM 6.07107 0L 7.07107 0L 7.07107 -2L 6.07107 -2L 6.07107 0ZM 1 0L 6.07107 0L 6.07107 -2L 1 -2L 1 0Z"/>
</defs>
</svg>
